<?xml version="1.0" encoding="UTF-8"?>
<svg width="512px" height="438px" viewBox="0 0 512 438" version="1.1" xmlns="http://www.w3.org/2000/svg" xmlns:xlink="http://www.w3.org/1999/xlink">
    <title>heart-regular</title>
    <g id="Page-1" stroke="none" stroke-width="1" fill="none" fill-rule="evenodd">
        <g id="heart-regular" fill="#FC1F3F" fill-rule="nonzero">
            <path d="M244,42 L255.1,54 L267.1,42.02 C300.6,9.37 347,-5.49 392.6,2.1 C461.5,13.58 512,73.2 512,143.1 L512,148.9 C512,190.4 494.8,230.1 464.4,258.4 L283.7,427.1 C276.2,434.1 266.3,438 256,438 C245.7,438 235.8,434.1 228.3,427.1 L47.59,258.4 C17.23,230.1 0,190.4 0,148.9 L0,143.1 C0,73.2 50.52,13.58 119.4,2.1 C164.1,-5.49 211.4,9.37 244,42 C243.1,42 244,42.01 244,42 L244,42 Z M255.1,121.9 L210.1,75.1 C188.4,54.28 157.6,44.4 127.3,49.44 C81.55,57.07 48,96.7 48,143.1 L48,148.9 C48,177.1 59.71,204.1 80.34,223.3 L256,387.3 L431.7,223.3 C452.3,204.1 464,177.1 464,148.9 L464,143.1 C464,96.7 430.4,57.07 384.7,49.44 C354.4,44.4 323.6,54.28 301.9,75.1 L255.1,121.9 Z" id="Shape"></path>
        </g>
    </g>
</svg>