<?xml version="1.0" encoding="UTF-8"?>
<svg width="27px" height="28px" viewBox="0 0 27 28" version="1.1" xmlns="http://www.w3.org/2000/svg" xmlns:xlink="http://www.w3.org/1999/xlink">
    <title>icon-search</title>
    <g id="Page-1" stroke="none" stroke-width="1" fill="none" fill-rule="evenodd">
        <g id="Artboard-Copy" transform="translate(0.000000, -1.000000)" stroke="#FFFFFF" stroke-width="2.5">
            <path d="M18.157,19.414 L25.3587572,26.5052038 L18.6412428,20.4947962 L18.157,19.414 Z M11,2.25 C13.6923882,2.25 16.1298882,3.34130592 17.8942911,5.10570888 C19.6586941,6.87011184 20.75,9.30761184 20.75,12 C20.75,14.7591263 19.6041574,17.2507267 17.7617302,19.0242569 L17.7617302,19.0242569 L17.83,19.092 L16.7093434,19.9044208 C15.1995974,20.9973702 13.3633,21.6678414 11.3746206,21.7429385 L11,21.75 C8.30761184,21.75 5.87011184,20.6586941 4.10570888,18.8942911 C2.34130592,17.1298882 1.25,14.6923882 1.25,12 C1.25,9.30761184 2.34130592,6.87011184 4.10570888,5.10570888 C5.87011184,3.34130592 8.30761184,2.25 11,2.25 L11,2.25 Z" id="icon-search"></path>
        </g>
    </g>
</svg>